<svg width="400" height="400" viewBox="0 0 400 400" fill="none" xmlns="http://www.w3.org/2000/svg">
<rect width="400" height="400" fill="#593196"/>
<g clip-path="url(#clip0_7_2)">
<path d="M68.75 112.076C85.3437 105.786 109.138 99.003 132.275 96.895C157.213 94.617 178.363 97.966 190.625 109.679V275.361C173.094 266.351 150.875 265.11 130.381 266.98C108.256 269.02 85.9437 274.817 68.75 280.767V112.076ZM209.375 109.679C221.637 97.966 242.788 94.617 267.725 96.895C290.863 99.003 314.656 105.786 331.25 112.076V280.767C314.038 274.817 291.744 269.003 269.619 266.997C249.106 265.11 226.906 266.334 209.375 275.361V109.679ZM200 94.311C181.531 79.912 154.756 77.77 130.381 79.98C101.994 82.581 73.3438 91.404 55.4938 98.765C53.8559 99.4404 52.467 100.529 51.4929 101.9C50.5188 103.272 50.0005 104.869 50 106.5V293.5C50.0004 294.922 50.3944 296.322 51.1459 297.57C51.8974 298.818 52.9824 299.876 54.3015 300.645C55.6205 301.415 57.1315 301.872 58.6959 301.975C60.2604 302.078 61.8284 301.824 63.2563 301.235C79.7938 294.435 106.438 286.258 132.256 283.895C158.675 281.481 180.819 285.374 192.688 298.804C193.566 299.797 194.679 300.598 195.945 301.149C197.21 301.699 198.596 301.985 200 301.985C201.404 301.985 202.79 301.699 204.055 301.149C205.321 300.598 206.434 299.797 207.313 298.804C219.181 285.374 241.325 281.481 267.725 283.895C293.563 286.258 320.225 294.435 336.744 301.235C338.172 301.824 339.74 302.078 341.304 301.975C342.869 301.872 344.379 301.415 345.699 300.645C347.018 299.876 348.103 298.818 348.854 297.57C349.606 296.322 350 294.922 350 293.5V106.5C350 104.869 349.481 103.272 348.507 101.9C347.533 100.529 346.144 99.4404 344.506 98.765C326.656 91.404 298.006 82.581 269.619 79.98C245.244 77.753 218.469 79.912 200 94.311Z" fill="white"/>
</g>
<defs>
<clipPath id="clip0_7_2">
<rect width="300" height="272" fill="white" transform="translate(50 64)"/>
</clipPath>
</defs>
</svg>
